<?xml version="1.0" encoding="UTF-8" standalone="no"?><!-- Generator: Gravit.io --><svg xmlns="http://www.w3.org/2000/svg" xmlns:xlink="http://www.w3.org/1999/xlink" style="isolation:isolate" viewBox="0 0 639.4 180.6" width="639.4" height="180.6"><defs><clipPath id="_clipPath_g2eZktNvqNC23SvG2sM76ExNDzyv43fg"><rect width="639.4" height="180.6"/></clipPath></defs><g clip-path="url(#_clipPath_g2eZktNvqNC23SvG2sM76ExNDzyv43fg)"><clipPath id="_clipPath_XcSSnd2VOAm1dmUTVmvxF0QTS5BmZjPt"><rect x="0" y="0" width="639.4" height="180.6" transform="matrix(1,0,0,1,0,0)" fill="rgb(255,255,255)"/></clipPath><g clip-path="url(#_clipPath_XcSSnd2VOAm1dmUTVmvxF0QTS5BmZjPt)"><g><clipPath id="_clipPath_HyR2tBKEqIQO22CbnAiEodjtsfSEPjOC"><rect x="0" y="0" width="639.4" height="180.6" transform="matrix(1,0,0,1,0,0)" fill="rgb(255,255,255)"/></clipPath><g clip-path="url(#_clipPath_HyR2tBKEqIQO22CbnAiEodjtsfSEPjOC)"><g><g><path d=" M 548.8 175.6 L 548.8 175.6 Q 536.4 175.6 529 166.6 L 529 166.6 L 529 166.6 Q 521.6 157.6 521.6 143 L 521.6 143 L 521.6 143 Q 521.6 127 529 112.7 L 529 112.7 L 529 112.7 Q 536.4 98.4 548.7 89.7 L 548.7 89.7 L 548.7 89.7 Q 561 81 574.8 81 L 574.8 81 L 574.8 81 Q 579.2 81 580.7 82.7 L 580.7 82.7 L 580.7 82.7 Q 582.2 84.4 583.2 88.8 L 583.2 88.8 L 583.2 88.8 Q 587.4 88 592 88 L 592 88 L 592 88 Q 601.8 88 601.8 95 L 601.8 95 L 601.8 95 Q 601.8 99.2 598.8 115 L 598.8 115 L 598.8 115 Q 594.2 138 594.2 147 L 594.2 147 L 594.2 147 Q 594.2 150 595.7 151.8 L 595.7 151.8 L 595.7 151.8 Q 597.2 153.6 599.6 153.6 L 599.6 153.6 L 599.6 153.6 Q 603.4 153.6 608.8 148.7 L 608.8 148.7 L 608.8 148.7 Q 614.2 143.8 623.4 132.8 L 623.4 132.8 L 623.4 132.8 Q 625.8 130 628.8 130 L 628.8 130 L 628.8 130 Q 631.4 130 632.9 132.4 L 632.9 132.4 L 632.9 132.4 Q 634.4 134.8 634.4 139 L 634.4 139 L 634.4 139 Q 634.4 147 630.6 151.4 L 630.6 151.4 L 630.6 151.4 Q 622.4 161.6 613.2 168.6 L 613.2 168.6 L 613.2 168.6 Q 604 175.6 595.4 175.6 L 595.4 175.6 L 595.4 175.6 Q 588.8 175.6 583.3 171.1 L 583.3 171.1 L 583.3 171.1 Q 577.8 166.6 575 158.8 L 575 158.8 L 575 158.8 Q 564.6 175.6 548.8 175.6 L 548.8 175.6 L 548.8 175.6 Z  M 556 155.4 L 556 155.4 Q 560.4 155.4 564.4 150.2 L 564.4 150.2 L 564.4 150.2 Q 568.4 145 570.2 136.4 L 570.2 136.4 L 577.6 99.6 L 577.6 99.6 Q 569.2 99.8 562.1 105.9 L 562.1 105.9 L 562.1 105.9 Q 555 112 550.8 122 L 550.8 122 L 550.8 122 Q 546.6 132 546.6 143.2 L 546.6 143.2 L 546.6 143.2 Q 546.6 149.4 549.1 152.4 L 549.1 152.4 L 549.1 152.4 Q 551.6 155.4 556 155.4 L 556 155.4 L 556 155.4 Z  M 465.8 175.6 L 465.8 175.6 Q 446.2 175.6 435.3 164.5 L 435.3 164.5 L 435.3 164.5 Q 424.4 153.4 424.4 135.2 L 424.4 135.2 L 424.4 135.2 Q 424.4 119 430.8 106.8 L 430.8 106.8 L 430.8 106.8 Q 437.2 94.6 447.4 88 L 447.4 88 L 447.4 88 Q 457.6 81.4 468.8 81.4 L 468.8 81.4 L 468.8 81.4 Q 479.8 81.4 485.9 87.9 L 485.9 87.9 L 485.9 87.9 Q 492 94.4 492 104.6 L 492 104.6 L 492 104.6 Q 492 113 488.3 118.8 L 488.3 118.8 L 488.3 118.8 Q 484.6 124.6 478.6 124.6 L 478.6 124.6 L 478.6 124.6 Q 474.8 124.6 472.5 122.8 L 472.5 122.8 L 472.5 122.8 Q 470.2 121 470.2 117.8 L 470.2 117.8 L 470.2 117.8 Q 470.2 116.4 470.6 114.6 L 470.6 114.6 L 470.6 114.6 Q 471 112.8 471.2 112 L 471.2 112 L 471.2 112 Q 472.2 109 472.2 106.4 L 472.2 106.4 L 472.2 106.4 Q 472.2 103.8 470.9 102.4 L 470.9 102.4 L 470.9 102.4 Q 469.6 101 467.2 101 L 467.2 101 L 467.2 101 Q 462.6 101 458.6 105.1 L 458.6 105.1 L 458.6 105.1 Q 454.6 109.2 452.2 116.2 L 452.2 116.2 L 452.2 116.2 Q 449.8 123.2 449.8 131.6 L 449.8 131.6 L 449.8 131.6 Q 449.8 154.8 470 154.8 L 470 154.8 L 470 154.8 Q 478.2 154.8 487.7 149.3 L 487.7 149.3 L 487.7 149.3 Q 497.2 143.8 506.4 132.8 L 506.4 132.8 L 506.4 132.8 Q 508.8 130 511.8 130 L 511.8 130 L 511.8 130 Q 514.4 130 515.9 132.4 L 515.9 132.4 L 515.9 132.4 Q 517.4 134.8 517.4 139 L 517.4 139 L 517.4 139 Q 517.4 146.6 513.6 151.4 L 513.6 151.4 L 513.6 151.4 Q 504.2 163 491.1 169.3 L 491.1 169.3 L 491.1 169.3 Q 478 175.6 465.8 175.6 L 465.8 175.6 L 465.8 175.6 Z  M 381.6 68.2 L 381.6 68.2 Q 373.2 68.2 369 64.3 L 369 64.3 L 369 64.3 Q 364.8 60.4 364.8 53.4 L 364.8 53.4 L 364.8 53.4 Q 364.8 46.4 370.3 41.7 L 370.3 41.7 L 370.3 41.7 Q 375.8 37 384 37 L 384 37 L 384 37 Q 391.4 37 396 40.6 L 396 40.6 L 396 40.6 Q 400.6 44.2 400.6 50.8 L 400.6 50.8 L 400.6 50.8 Q 400.6 58.8 395.4 63.5 L 395.4 63.5 L 395.4 63.5 Q 390.2 68.2 381.6 68.2 L 381.6 68.2 L 381.6 68.2 Z  M 380 175.6 L 380 175.6 Q 367 175.6 361.1 166.4 L 361.1 166.4 L 361.1 166.4 Q 355.2 157.2 355.2 142 L 355.2 142 L 355.2 142 Q 355.2 133 357.5 118.9 L 357.5 118.9 L 357.5 118.9 Q 359.8 104.8 363.4 92.6 L 363.4 92.6 L 363.4 92.6 Q 365.2 86.2 368.2 83.8 L 368.2 83.8 L 368.2 83.8 Q 371.2 81.4 377.8 81.4 L 377.8 81.4 L 377.8 81.4 Q 388 81.4 388 88.2 L 388 88.2 L 388 88.2 Q 388 93.2 384.2 111.4 L 384.2 111.4 L 384.2 111.4 Q 379.4 133.4 379.4 141.2 L 379.4 141.2 L 379.4 141.2 Q 379.4 147.2 381 150.4 L 381 150.4 L 381 150.4 Q 382.6 153.6 386.4 153.6 L 386.4 153.6 L 386.4 153.6 Q 390 153.6 395.4 148.6 L 395.4 148.6 L 395.4 148.6 Q 400.8 143.6 409.8 132.8 L 409.8 132.8 L 409.8 132.8 Q 412.2 130 415.2 130 L 415.2 130 L 415.2 130 Q 417.8 130 419.3 132.4 L 419.3 132.4 L 419.3 132.4 Q 420.8 134.8 420.8 139 L 420.8 139 L 420.8 139 Q 420.8 147 417 151.4 L 417 151.4 L 417 151.4 Q 397.2 175.6 380 175.6 L 380 175.6 L 380 175.6 Z  M 197.8 175.6 L 197.8 175.6 Q 190.2 175.6 187.1 167.6 L 187.1 167.6 L 187.1 167.6 Q 184 159.6 184 142 L 184 142 L 184 142 Q 184 116 191.4 92.6 L 191.4 92.6 L 191.4 92.6 Q 193.2 86.8 197.3 84.1 L 197.3 84.1 L 197.3 84.1 Q 201.4 81.4 208.8 81.4 L 208.8 81.4 L 208.8 81.4 Q 212.8 81.4 214.4 82.4 L 214.4 82.4 L 214.4 82.4 Q 216 83.4 216 86.2 L 216 86.2 L 216 86.2 Q 216 89.4 213 100.6 L 213 100.6 L 213 100.6 Q 211 108.6 209.8 114.5 L 209.8 114.5 L 209.8 114.5 Q 208.6 120.4 207.8 129.2 L 207.8 129.2 L 207.8 129.2 Q 213.2 113.6 220.7 102.8 L 220.7 102.8 L 220.7 102.8 Q 228.2 92 236.1 86.7 L 236.1 86.7 L 236.1 86.7 Q 244 81.4 251 81.4 L 251 81.4 L 251 81.4 Q 258 81.4 260.9 84.6 L 260.9 84.6 L 260.9 84.6 Q 263.8 87.8 263.8 94.4 L 263.8 94.4 L 263.8 94.4 Q 263.8 100.8 260 117.6 L 260 117.6 L 260 117.6 Q 258.4 124.8 257.8 128.4 L 257.8 128.4 L 257.8 128.4 Q 267.8 103.8 280 92.6 L 280 92.6 L 280 92.6 Q 292.2 81.4 302.8 81.4 L 302.8 81.4 L 302.8 81.4 Q 315.8 81.4 315.8 94.4 L 315.8 94.4 L 315.8 94.4 Q 315.8 102.2 311.4 122.6 L 311.4 122.6 L 311.4 122.6 Q 307.6 140 307.6 145.6 L 307.6 145.6 L 307.6 145.6 Q 307.6 153.6 313.4 153.6 L 313.4 153.6 L 313.4 153.6 Q 317.4 153.6 322.9 148.7 L 322.9 148.7 L 322.9 148.7 Q 328.4 143.8 337.6 132.8 L 337.6 132.8 L 337.6 132.8 Q 340 130 343 130 L 343 130 L 343 130 Q 345.6 130 347.1 132.4 L 347.1 132.4 L 347.1 132.4 Q 348.6 134.8 348.6 139 L 348.6 139 L 348.6 139 Q 348.6 147 344.8 151.4 L 344.8 151.4 L 344.8 151.4 Q 336.2 162 326.3 168.8 L 326.3 168.8 L 326.3 168.8 Q 316.4 175.6 303.8 175.6 L 303.8 175.6 L 303.8 175.6 Q 293.6 175.6 288.4 169.7 L 288.4 169.7 L 288.4 169.7 Q 283.2 163.8 283.2 152.6 L 283.2 152.6 L 283.2 152.6 Q 283.2 147 286 132.6 L 286 132.6 L 286 132.6 Q 288.6 120 288.6 115.2 L 288.6 115.2 L 288.6 115.2 Q 288.6 112 286.4 112 L 286.4 112 L 286.4 112 Q 283.8 112 279 118.7 L 279 118.7 L 279 118.7 Q 274.2 125.4 269.4 136.4 L 269.4 136.4 L 269.4 136.4 Q 264.6 147.4 261.6 159.6 L 261.6 159.6 L 261.6 159.6 Q 259.4 169.2 256.5 172.4 L 256.5 172.4 L 256.5 172.4 Q 253.6 175.6 247.2 175.6 L 247.2 175.6 L 247.2 175.6 Q 240.6 175.6 237.3 169.3 L 237.3 169.3 L 237.3 169.3 Q 234 163 234 154 L 234 154 L 234 154 Q 234 146.4 236 132 L 236 132 L 236 132 Q 237.6 119.2 237.6 115.2 L 237.6 115.2 L 237.6 115.2 Q 237.6 112 235.4 112 L 235.4 112 L 235.4 112 Q 232.4 112 227.8 119.2 L 227.8 119.2 L 227.8 119.2 Q 223.2 126.4 218.9 137.6 L 218.9 137.6 L 218.9 137.6 Q 214.6 148.8 212 159.6 L 212 159.6 L 212 159.6 Q 209.8 169 206.9 172.3 L 206.9 172.3 L 206.9 172.3 Q 204 175.6 197.8 175.6 L 197.8 175.6 L 197.8 175.6 Z  M 53.8 175.6 L 53.8 175.6 Q 40 175.6 28.9 168.8 L 28.9 168.8 L 28.9 168.8 Q 17.8 162 11.4 149.1 L 11.4 149.1 L 11.4 149.1 Q 5 136.2 5 118.6 L 5 118.6 L 5 118.6 Q 5 88.2 18 62.3 L 18 62.3 L 18 62.3 Q 31 36.4 56.4 20.7 L 56.4 20.7 L 56.4 20.7 Q 62.149 17.146 68.421 14.397 C 82.712 8.132 99.038 5 117.4 5 L 117.4 5 L 117.4 5 Q 126.6 5 137.1 6.4 L 137.1 6.4 L 137.1 6.4 Q 147.6 7.8 156.2 10.6 L 156.2 10.6 L 156.2 10.6 Q 161.8 12.2 161.8 18.6 L 161.8 18.6 L 161.8 18.6 Q 161.8 23.8 157.9 28.4 L 157.9 28.4 L 157.9 28.4 Q 154 33 148.8 33 L 148.8 33 L 148.8 33 Q 147.2 33 146.4 32.8 L 146.4 32.8 L 146.4 32.8 Q 136 30.4 128.6 29.3 L 128.6 29.3 L 128.6 29.3 Q 121.2 28.2 113 28.2 L 113 28.2 L 113 28.2 Q 87.6 28.2 69.8 40.5 L 69.8 40.5 L 69.8 40.5 Q 52 52.8 43.2 73 L 43.2 73 L 43.2 73 Q 34.4 93.2 34.4 116.6 L 34.4 116.6 L 34.4 116.6 Q 34.4 133.6 41.1 142.9 L 41.1 142.9 L 41.1 142.9 Q 47.8 152.2 58.6 152.2 L 58.6 152.2 L 58.6 152.2 Q 70.8 152.2 80 142.2 L 80 142.2 L 80 142.2 Q 89.2 132.2 96.8 109.8 L 96.8 109.8 L 96.8 109.8 Q 104.4 87.4 111.8 49 L 111.8 49 L 111.8 49 Q 113 43.4 116.6 41.4 L 116.6 41.4 L 116.6 41.4 Q 120.2 39.4 126.2 39.4 L 126.2 39.4 L 126.2 39.4 Q 140.4 39.4 140.4 48.6 L 140.4 48.6 L 140.4 48.6 Q 140.4 50.2 139.8 52.6 L 139.8 52.6 L 139.8 52.6 Q 134.6 72 130.3 95.5 L 130.3 95.5 L 130.3 95.5 Q 126 119 126 131.2 L 126 131.2 L 126 131.2 Q 126 142 129.2 146.9 L 129.2 146.9 L 129.2 146.9 Q 132.4 151.8 139 151.8 L 139 151.8 L 139 151.8 Q 145.4 151.8 151.2 147.5 L 151.2 147.5 L 151.2 147.5 Q 157 143.2 165.8 132.8 L 165.8 132.8 L 165.8 132.8 Q 168.2 130 171.2 130 L 171.2 130 L 171.2 130 Q 173.8 130 175.3 132.4 L 175.3 132.4 L 175.3 132.4 Q 176.8 134.8 176.8 139 L 176.8 139 L 176.8 139 Q 176.8 146.8 173 151.4 L 173 151.4 L 173 151.4 Q 163.2 163.2 153.8 169.4 L 153.8 169.4 L 153.8 169.4 Q 144.4 175.6 130.8 175.6 L 130.8 175.6 L 130.8 175.6 Q 116.8 175.6 108.2 167.5 L 108.2 167.5 L 108.2 167.5 Q 99.6 159.4 97.4 144.6 L 97.4 144.6 L 97.4 144.6 Q 82.6 175.6 53.8 175.6 L 53.8 175.6 L 53.8 175.6 Z " fill="rgb(255,255,255)" vector-effect="non-scaling-stroke" stroke-width="11.5" stroke="rgb(242,96,96)" stroke-opacity="10000" stroke-linejoin="miter" stroke-linecap="square" stroke-miterlimit="3"/></g></g></g></g></g></g></svg>